PathFileType	4	(X/Y/Z)	C:\Users\u0145647\OneDrive - KU Leuven\KU Leuven\c3d2osim\CP4\T0\Data\Processed\ViconC3D_CP4_2\CP4_T0_10_gapFilled.trc
DataRate	CameraRate	NumFrames	NumMarkers	Units	OrigDataRate	OrigDataStartFrame	OrigNumFrames
100.000000	100.000000	8	47	mm	100.000000	80	633
Frame#	Time	C7			T10			CLAV			STRN			LSHO			RSHO			RBAK			LASI			RASI			LPSI			RPSI			LLAT			RLAT			LF1			LF2			LF3			LTHI			LKNE			LMEK			RF1			RF2			RF3			RTHI			RKNE			RMEK			LT1			LT2			LT3			LTIB			LANK			LMM			RT1			RT2			RT3			RTIB			RANK			RMM			LHEE			LSTL			LLCA			LTOE			LCM5			RHEE			RSTL			RLCA			RTOE			RCM5
		X1	Y1	Z1	X2	Y2	Z2	X3	Y3	Z3	X4	Y4	Z4	X5	Y5	Z5	X6	Y6	Z6	X7	Y7	Z7	X8	Y8	Z8	X9	Y9	Z9	X10	Y10	Z10	X11	Y11	Z11	X12	Y12	Z12	X13	Y13	Z13	X14	Y14	Z14	X15	Y15	Z15	X16	Y16	Z16	X17	Y17	Z17	X18	Y18	Z18	X19	Y19	Z19	X20	Y20	Z20	X21	Y21	Z21	X22	Y22	Z22	X23	Y23	Z23	X24	Y24	Z24	X25	Y25	Z25	X26	Y26	Z26	X27	Y27	Z27	X28	Y28	Z28	X29	Y29	Z29	X30	Y30	Z30	X31	Y31	Z31	X32	Y32	Z32	X33	Y33	Z33	X34	Y34	Z34	X35	Y35	Z35	X36	Y36	Z36	X37	Y37	Z37	X38	Y38	Z38	X39	Y39	Z39	X40	Y40	Z40	X41	Y41	Z41	X42	Y42	Z42	X43	Y43	Z43	X44	Y44	Z44	X45	Y45	Z45	X46	Y46	Z46	X47	Y47	Z47

80	0.79	-1758.4	1447.4	-175.02	-1787.7	1186.3	-203.06	NaN	NaN	NaN	NaN	NaN	NaN	-1646.4	1406.2	-371.69	-1755.9	1394	23.206	-1823.7	1359.7	-65.388	-1607.2	925.96	-241.01	-1689.6	912.56	-59.643	-1787.7	973.85	-253.07	-1818	973.04	-184.27	-1636.7	1000	-309.37	-1759.1	992.71	-38.713	-1588.2	672.97	-312.49	-1607	715.25	-324.75	-1620.9	663.81	-325.15	NaN	NaN	NaN	-1584.5	468.38	-265.56	NaN	NaN	NaN	-1736.6	638.01	-28.428	-1720.6	672.82	-28.807	-1781.7	669.98	-34.7	-1723.5	578.7	13.927	-1702.2	452.6	-49.257	NaN	NaN	NaN	-1647.1	296.93	-293.99	-1603.3	332.89	-270.33	-1648	341.5	-295.36	-1596.5	225.05	-296.57	-1702.9	68.204	-265.36	-1698.3	77.647	-176.1	-1813.9	356.54	-25.003	-1764.7	370.14	-46.181	-1800.5	407.86	-28.27	-1849.3	294.46	17.67	-1996.3	182.98	-31.313	-1980.3	195.71	-116.11	-1756.9	52.284	-223.38	-1701.1	47.165	-180.1	-1699.9	39.88	-259.01	-1579.2	40.472	-217.48	-1591.4	33.044	-264.08	-2038.5	219.72	-65.941	-2006.9	173.13	-113.01	-2009.6	161.62	-35.845	-1929.9	76.044	-85.82	-1959.5	67.63	-38.75
81	0.8	-1748.6	1448.8	-175.14	-1778.2	1187.7	-203.37	NaN	NaN	NaN	NaN	NaN	NaN	-1636	1407.5	-371.24	-1747.3	1395.6	23.016	-1814.5	1361.3	-65.851	-1600.6	926.98	-240.21	-1680.8	915.06	-59.189	-1778	975.09	-253.23	-1808.4	974.28	-184.5	-1627	1001.7	-309.58	-1749.7	994.13	-39.137	-1581.7	673.03	-313.11	-1599.7	715.66	-325.02	-1614.9	664.63	-325.9	NaN	NaN	NaN	-1582.1	467.62	-266.63	NaN	NaN	NaN	-1722.3	641.16	-26.469	-1706.7	676.06	-26.829	-1766.9	671.79	-34.223	-1709.2	582.29	16.568	-1682.4	456.71	-45.7	NaN	NaN	NaN	-1646	296.54	-294.66	-1602.2	332.38	-271.4	-1646.8	341.21	-296.18	-1594.8	223.5	-297.09	-1702.9	68.059	-265.61	-1698.4	77.928	-176.43	-1791.9	357.94	-23.485	-1742.9	372.17	-42.281	-1780.4	409.98	-27.023	-1827.8	296.31	19.526	-1970.4	180.86	-32.097	-1952.3	191.87	-116.74	-1756.8	52.388	-223.5	-1699.5	45.699	-180.77	-1699.9	39.777	-259.19	-1578.9	40.18	-217.54	-1591.5	32.773	-264.5	-2012.4	215.7	-69.12	-1977.5	168.04	-113.46	-1982.8	158.97	-36.48	-1899.4	74.607	-82.298	-1928.9	67.512	-34.711
82	0.81	-1738.8	1450	-175.19	-1768.6	1189	-203.66	NaN	NaN	NaN	NaN	NaN	NaN	-1625.8	1408.7	-370.76	-1738.5	1397	22.852	-1805.3	1362.7	-66.26	-1585.4	927.79	-242.69	-1671.3	916.71	-59.201	-1768.3	975.87	-253.25	-1798.7	975.12	-184.56	-1617.9	1003.3	-309.74	-1740.3	995.24	-39.385	-1575.1	672.99	-313.57	-1592.7	715.83	-325.8	-1608.1	664.73	-325.93	NaN	NaN	NaN	-1579.8	466.9	-267.56	NaN	NaN	NaN	-1708.3	643.92	-24.529	-1693.2	679.04	-24.88	-1754.6	673.3	-33.114	-1695.7	585.68	19.274	-1662.1	460.43	-42.621	NaN	NaN	NaN	-1645.1	296.29	-295.44	-1600.9	331.68	-272.55	-1645.6	341.03	-296.96	-1594.3	222.99	-297.84	-1703.2	68.359	-266.19	-1698.2	78.013	-176.75	-1770.7	360.12	-21.65	-1721.1	374.19	-38.381	-1760.1	411.89	-25.926	-1806.3	298.02	21.333	-1943.7	178.14	-32.816	-1923.5	187.87	-117.23	-1756.8	52.495	-223.6	-1702.4	48.486	-180.94	-1700	39.688	-259.39	-1578.3	39.789	-217.22	-1591.5	32.517	-264.94	-1985.9	211.34	-72.052	-1947.8	162.92	-114.03	-1955.5	156.19	-37.126	-1868.3	73.435	-78.269	-1898.2	67.328	-30.456
83	0.82	-1729.1	1450.9	-175.28	-1759.1	1189.9	-203.87	NaN	NaN	NaN	NaN	NaN	NaN	-1615.4	1409.7	-370.23	-1729.7	1398.1	22.678	-1796.1	1363.8	-66.666	-1578.8	929.2	-242.43	-1660.7	917.64	-59.761	-1758.9	976.24	-253.18	-1789.2	975.47	-184.5	-1608.7	1004.3	-309.82	-1730.9	995.94	-39.413	-1568.4	672.54	-314.05	-1585	715.58	-325.47	-1601.7	664.53	-326.1	NaN	NaN	NaN	-1577.3	466.18	-268.33	NaN	NaN	NaN	-1694.4	646.15	-22.822	-1680	681.51	-22.976	-1741	674.35	-32.921	-1681.6	588.1	21.271	-1642.2	464.28	-39.595	NaN	NaN	NaN	-1644	295.92	-296.02	-1599.6	331.14	-273.32	-1644.5	340.76	-297.46	-1593.7	222.59	-298.43	-1703.3	68.231	-266.38	-1698.1	78.116	-176.96	-1748.8	361.5	-19.999	-1699.3	376.21	-34.481	-1739.3	413.35	-24.852	-1784	299.32	22.903	-1916	174.92	-33.54	-1894.1	183.66	-117.58	-1757.1	52.812	-223.89	-1702.1	48.416	-181.07	-1700	39.609	-259.5	-1578.9	40.019	-218.19	-1591.6	32.245	-265.37	-1959.4	206.97	-74.984	-1917.8	157.91	-114.48	-1927	152.29	-37.794	-1836.8	72.262	-74.622	-1866.6	66.135	-27.97
84	0.83	-1719.4	1451.6	-175.28	-1749.7	1190.6	-203.98	NaN	NaN	NaN	NaN	NaN	NaN	-1604.9	1410.5	-369.73	-1720.8	1398.8	22.566	-1786.9	1364.6	-67.031	-1569.8	929.86	-242.23	-1650.7	918.59	-59.741	-1749.6	976.31	-253.04	-1779.8	975.41	-184.33	-1599.5	1005	-309.81	-1721.4	996.32	-39.395	-1562.1	672.11	-314.51	-1578	715.47	-325.71	-1595.4	664.8	-326.08	NaN	NaN	NaN	-1574.8	465.37	-269.21	NaN	NaN	NaN	-1681	648	-21.094	-1667.3	683.73	-20.767	-1727.6	674.81	-32.761	-1667.1	589.81	22.883	-1622.2	468	-36.79	NaN	NaN	NaN	-1643	295.56	-296.61	-1598.2	330.62	-273.94	-1643.2	340.51	-298.06	-1592.7	221.37	-299.23	-1703.2	68.129	-266.56	-1697.8	78.122	-177.12	-1726.1	362.29	-18.858	-1678.8	378.42	-31.723	-1717.8	414.17	-23.634	-1761.2	300.06	24.255	-1888.3	172.08	-33.712	-1863.6	179.1	-117.36	-1756.7	52.703	-223.69	-1702.1	48.486	-181.23	-1700.1	39.585	-259.66	-1578.9	39.99	-218.59	-1591.5	31.951	-265.72	-1930.1	200.63	-76.558	-1887.1	152.82	-114.67	-1897.8	148.28	-38.021	-1804.4	71.206	-70.937	-1834.9	65.631	-24.324
85	0.84	-1709.6	1451.9	-175.33	-1740.3	1191	-204.03	NaN	NaN	NaN	NaN	NaN	NaN	-1594.5	1411	-369.2	-1711.9	1399.2	22.443	-1777.6	1365.1	-67.463	-1560.2	930.87	-242.55	-1640.4	919.04	-59.867	-1740.4	976.03	-252.75	-1770.3	974.91	-183.97	-1590.5	1005.3	-309.8	-1711.7	996.32	-39.293	-1555	670.99	-314.41	-1570.6	714.95	-325.52	-1589	664.52	-325.81	NaN	NaN	NaN	-1572.2	464.73	-269.95	NaN	NaN	NaN	-1667.3	649.23	-19.551	-1654.6	685.42	-18.69	-1714.2	674.9	-32.575	-1653.5	591.28	24.599	-1602.4	471.56	-34.231	NaN	NaN	NaN	-1641.9	295.39	-297.02	-1596.8	330.11	-274.52	-1641.9	340.24	-298.51	-1591.7	220.44	-299.61	-1703.2	68.057	-266.72	-1697.6	78.131	-177.34	-1703.2	363.06	-17.572	-1654.8	381.65	-31.093	-1696.7	415.16	-22.812	-1737.4	300.22	25.492	-1859	167.54	-34.014	-1833.4	174.5	-117.54	-1756.8	52.91	-223.83	-1701.9	48.509	-181.35	-1700.1	39.481	-259.76	-1578.9	39.958	-218.89	-1591.6	31.745	-266.08	-1900.8	194.29	-78.133	-1855.7	147.26	-114.55	-1867.5	143.23	-38.756	-1771.6	69.77	-67.697	-1802.6	64.471	-21.609
86	0.85	-1699.8	1452	-175.36	-1731	1191.1	-204.01	NaN	NaN	NaN	NaN	NaN	NaN	-1583.9	1411.1	-368.56	-1702.9	1399.3	22.37	-1768.3	1365.3	-67.782	-1550.9	930.95	-242.8	-1630.1	919.2	-59.797	-1731.3	975.36	-252.29	-1761	974.05	-183.52	-1581.7	1005.6	-309.96	-1702	996.05	-39.104	-1549	670.49	-314.98	-1563.7	714.63	-325.49	-1582.7	664.3	-325.82	NaN	NaN	NaN	-1569.3	463.98	-270.45	NaN	NaN	NaN	-1653.4	649.99	-18.202	-1641.7	686.5	-16.957	-1700.5	674.34	-32.413	-1639.2	592.09	26.033	-1582.6	474.82	-31.896	NaN	NaN	NaN	-1640.6	295.07	-297.49	-1595.1	329.45	-274.96	-1640.1	339.96	-298.83	-1591	220.07	-300.09	-1703.2	68.038	-266.92	-1697.6	78.428	-177.48	-1680.2	363.41	-16.255	-1633.4	382.12	-27.96	-1675.1	415.6	-21.884	-1712.9	299.64	26.583	-1829.7	163.38	-34.196	-1803.2	170.46	-117.65	-1756.8	53.098	-223.86	-1699.1	46.299	-181.6	-1700.2	39.469	-259.91	-1578.9	39.875	-219.19	-1591.6	31.482	-266.34	-1870.7	187.53	-79.296	-1824	141.92	-114.51	-1839.5	140.87	-36.911	-1737.2	67.361	-65.225	-1769.8	63.245	-19.045
87	0.86	-1690	1451.9	-175.3	-1721.7	1190.8	-203.97	NaN	NaN	NaN	NaN	NaN	NaN	-1573.4	1411.1	-367.87	-1693.9	1399	22.374	-1759	1365.2	-68.134	-1541.9	931.06	-242.99	-1619.7	919.27	-59.677	-1722.3	974.55	-251.7	-1751.6	972.8	-182.82	-1572.7	1005.2	-309.91	-1692.2	995.54	-38.87	-1543.7	668.6	-314.57	-1556.2	713.52	-324.92	-1576.3	663.88	-325.46	NaN	NaN	NaN	-1566	462.8	-271.14	NaN	NaN	NaN	-1639.1	650.15	-16.971	-1628.5	687.08	-15.245	-1686.8	673.5	-31.988	-1624.4	592.45	27.283	-1563	477.85	-29.89	NaN	NaN	NaN	-1639	294.57	-297.76	-1593.4	328.86	-275.46	-1638.3	339.61	-299.13	-1590	219.15	-300.55	-1703.1	67.904	-267.03	-1696.4	78.019	-178.49	-1657.1	363.41	-15.166	-1610.5	383.45	-26.617	-1653.5	415.49	-20.811	-1687.9	298.51	27.478	-1799.6	158.61	-34.231	-1771.2	165.16	-116.84	-1756.7	53.231	-223.9	-1703.3	50.334	-182.42	-1700.3	39.416	-260.01	-1578.9	39.745	-219.4	-1591.7	31.269	-266.73	-1840.2	180.28	-79.791	-1792.3	136.69	-114.43	-1806.5	134.01	-38.32	-1703.9	66.021	-62.693	-1735.8	61.011	-16.993
